<svg xmlns="http://www.w3.org/2000/svg" width="32" height="32" viewBox="0 0 32 32" id="favorite"><path d="M16,23.950931 L23.3243448,27.8015669 L21.9255194,19.6457891 L27.8510389,13.8698352 L19.6621724,12.6799232 L16,5.25955146 L12.3378276,12.6799232 L4.14896114,13.8698352 L10.0744806,19.6457891 L8.67565518,27.8015669 L16,23.950931 Z M9.60633744,29.5718298 C8.62864827,30.0858314 7.41939395,29.7099384 6.90539234,28.7322492 C6.7007142,28.3429282 6.63008485,27.8969921 6.70443854,27.4634768 L7.92551943,20.3440289 L2.75293776,15.3020079 C1.9619706,14.5310055 1.94578599,13.264779 2.71678842,12.4738118 C3.02380562,12.1588445 3.42609045,11.9538702 3.86136451,11.8906212 L11.0096966,10.8519077 L14.2065278,4.37442004 C14.6953724,3.38391272 15.8946241,2.97723472 16.8851314,3.46607931 C17.2795566,3.66073979 17.5988117,3.97999483 17.7934722,4.37442004 L20.9903034,10.8519077 L28.1386355,11.8906212 C29.2317252,12.0494564 29.9890881,13.0643421 29.8302529,14.1574318 C29.7670039,14.5927059 29.5620295,14.9949907 29.2470622,15.3020079 L24.0744806,20.3440289 L25.2955615,27.4634768 C25.4822835,28.5521497 24.7511078,29.5860616 23.6624349,29.7727836 C23.2289197,29.8471373 22.7829835,29.7765079 22.3936626,29.5718298 L16,26.2104824 L9.60633744,29.5718298 Z"></path></svg>